{
	"asset":{
		"generator":"Khronos glTF Blender I/O v3.6.27",
		"version":"2.0"
	},
	"extensionsUsed":[
		"KHR_materials_specular",
		"KHR_materials_ior"
	],
	"scene":0,
	"scenes":[
		{
			"name":"Scene",
			"nodes":[
				0,
				1,
				2
			]
		}
	],
	"nodes":[
		{
			"mesh":0,
			"name":"TQ_ARD-node"
		},
		{
			"mesh":1,
			"name":"Sphere"
		},
		{
			"name":"Lattice",
			"scale":[
				0.009145984426140785,
				0.009145984426140785,
				0.13471633195877075
			],
			"translation":[
				0.013621099293231964,
				0.10332833230495453,
				-0.00010868115350604057
			]
		}
	],
	"materials":[
		{
			"doubleSided":true,
			"extensions":{
				"KHR_materials_specular":{
					"specularColorFactor":[
						0,
						0,
						0
					]
				},
				"KHR_materials_ior":{
					"ior":0
				}
			},
			"name":"TQ_ARD_front",
			"pbrMetallicRoughness":{
				"baseColorTexture":{
					"index":0
				},
				"metallicFactor":0,
				"roughnessFactor":0.5
			}
		},
		{
			"doubleSided":true,
			"extensions":{
				"KHR_materials_specular":{
					"specularColorFactor":[
						0,
						0,
						0
					]
				},
				"KHR_materials_ior":{
					"ior":0
				}
			},
			"name":"TQ_ARD_back",
			"pbrMetallicRoughness":{
				"baseColorFactor":[
					0.996078372001648,
					0.9019607901573181,
					0.6627451181411743,
					1
				],
				"metallicFactor":0,
				"roughnessFactor":0.5
			}
		},
		{
			"doubleSided":true,
			"extensions":{
				"KHR_materials_specular":{
					"specularColorFactor":[
						0,
						0,
						0
					]
				},
				"KHR_materials_ior":{
					"ior":0
				}
			},
			"name":"TQ_ARD_edge",
			"pbrMetallicRoughness":{
				"baseColorTexture":{
					"index":1
				},
				"metallicFactor":0,
				"roughnessFactor":0.5
			}
		},
		{
			"doubleSided":true,
			"name":"Material.001",
			"normalTexture":{
				"index":2
			},
			"pbrMetallicRoughness":{
				"baseColorFactor":[
					0.00719347083941102,
					0.00719347083941102,
					0.00719347083941102,
					1
				],
				"metallicFactor":0,
				"roughnessFactor":0.5
			}
		}
	],
	"meshes":[
		{
			"name":"TQ_ARD-geom",
			"primitives":[
				{
					"attributes":{
						"POSITION":0,
						"NORMAL":1,
						"TEXCOORD_0":2
					},
					"indices":3,
					"material":0
				},
				{
					"attributes":{
						"POSITION":4,
						"NORMAL":5,
						"TEXCOORD_0":6
					},
					"indices":7,
					"material":1
				},
				{
					"attributes":{
						"POSITION":8,
						"NORMAL":9,
						"TEXCOORD_0":10
					},
					"indices":11,
					"material":2
				}
			]
		},
		{
			"name":"Sphere",
			"primitives":[
				{
					"attributes":{
						"POSITION":12,
						"NORMAL":13,
						"TEXCOORD_0":14
					},
					"indices":15,
					"material":3
				}
			]
		}
	],
	"textures":[
		{
			"sampler":0,
			"source":0
		},
		{
			"sampler":0,
			"source":1
		},
		{
			"sampler":0,
			"source":2
		}
	],
	"images":[
		{
			"bufferView":4,
			"mimeType":"image/jpeg",
			"name":"1"
		},
		{
			"bufferView":13,
			"mimeType":"image/png",
			"name":"TQ_ARD-I1.png"
		},
		{
			"bufferView":18,
			"mimeType":"image/png",
			"name":"aaa"
		}
	],
	"accessors":[
		{
			"bufferView":0,
			"componentType":5126,
			"count":1246,
			"max":[
				0.06702207028865814,
				0.1110851988196373,
				0.11151859909296036
			],
			"min":[
				-0.04427577555179596,
				0.0023414194583892822,
				-0.11007172614336014
			],
			"type":"VEC3"
		},
		{
			"bufferView":1,
			"componentType":5126,
			"count":1246,
			"type":"VEC3"
		},
		{
			"bufferView":2,
			"componentType":5126,
			"count":1246,
			"type":"VEC2"
		},
		{
			"bufferView":3,
			"componentType":5123,
			"count":3621,
			"type":"SCALAR"
		},
		{
			"bufferView":5,
			"componentType":5126,
			"count":1104,
			"max":[
				0.06616248190402985,
				0.1110851988196373,
				0.11073291301727295
			],
			"min":[
				-0.042728960514068604,
				0.0033676549792289734,
				-0.10942497849464417
			],
			"type":"VEC3"
		},
		{
			"bufferView":6,
			"componentType":5126,
			"count":1104,
			"type":"VEC3"
		},
		{
			"bufferView":7,
			"componentType":5126,
			"count":1104,
			"type":"VEC2"
		},
		{
			"bufferView":8,
			"componentType":5123,
			"count":3621,
			"type":"SCALAR"
		},
		{
			"bufferView":9,
			"componentType":5126,
			"count":2132,
			"max":[
				0.06702201813459396,
				0.1110851988196373,
				0.11151859164237976
			],
			"min":[
				-0.04427577555179596,
				0.0023414194583892822,
				-0.11007171869277954
			],
			"type":"VEC3"
		},
		{
			"bufferView":10,
			"componentType":5126,
			"count":2132,
			"type":"VEC3"
		},
		{
			"bufferView":11,
			"componentType":5126,
			"count":2132,
			"type":"VEC2"
		},
		{
			"bufferView":12,
			"componentType":5123,
			"count":4512,
			"type":"SCALAR"
		},
		{
			"bufferView":14,
			"componentType":5126,
			"count":18889,
			"max":[
				0.02281893417239189,
				0.11670142412185669,
				0.06570347398519516
			],
			"min":[
				0.004423264414072037,
				0.09812331199645996,
				-0.06313680112361908
			],
			"type":"VEC3"
		},
		{
			"bufferView":15,
			"componentType":5126,
			"count":18889,
			"type":"VEC3"
		},
		{
			"bufferView":16,
			"componentType":5126,
			"count":18889,
			"type":"VEC2"
		},
		{
			"bufferView":17,
			"componentType":5123,
			"count":111936,
			"type":"SCALAR"
		}
	],
	"bufferViews":[
		{
			"buffer":0,
			"byteLength":14952,
			"byteOffset":0,
			"target":34962
		},
		{
			"buffer":0,
			"byteLength":14952,
			"byteOffset":14952,
			"target":34962
		},
		{
			"buffer":0,
			"byteLength":9968,
			"byteOffset":29904,
			"target":34962
		},
		{
			"buffer":0,
			"byteLength":7242,
			"byteOffset":39872,
			"target":34963
		},
		{
			"buffer":0,
			"byteLength":562775,
			"byteOffset":47116
		},
		{
			"buffer":0,
			"byteLength":13248,
			"byteOffset":609892,
			"target":34962
		},
		{
			"buffer":0,
			"byteLength":13248,
			"byteOffset":623140,
			"target":34962
		},
		{
			"buffer":0,
			"byteLength":8832,
			"byteOffset":636388,
			"target":34962
		},
		{
			"buffer":0,
			"byteLength":7242,
			"byteOffset":645220,
			"target":34963
		},
		{
			"buffer":0,
			"byteLength":25584,
			"byteOffset":652464,
			"target":34962
		},
		{
			"buffer":0,
			"byteLength":25584,
			"byteOffset":678048,
			"target":34962
		},
		{
			"buffer":0,
			"byteLength":17056,
			"byteOffset":703632,
			"target":34962
		},
		{
			"buffer":0,
			"byteLength":9024,
			"byteOffset":720688,
			"target":34963
		},
		{
			"buffer":0,
			"byteLength":767,
			"byteOffset":729712
		},
		{
			"buffer":0,
			"byteLength":226668,
			"byteOffset":730480,
			"target":34962
		},
		{
			"buffer":0,
			"byteLength":226668,
			"byteOffset":957148,
			"target":34962
		},
		{
			"buffer":0,
			"byteLength":151112,
			"byteOffset":1183816,
			"target":34962
		},
		{
			"buffer":0,
			"byteLength":223872,
			"byteOffset":1334928,
			"target":34963
		},
		{
			"buffer":0,
			"byteLength":29130,
			"byteOffset":1558800
		}
	],
	"samplers":[
		{
			"magFilter":9729,
			"minFilter":9987
		}
	],
	"buffers":[
		{
			"byteLength":1587932,
			"uri":"data:application/octet-stream;base64,"
		}
	]
}
